<svg width="21" height="21" viewBox="0 0 21 21" fill="none" xmlns="http://www.w3.org/2000/svg">
<path d="M20.631 18.8756L16.595 14.8397C17.8182 13.2384 18.489 11.2962 18.4893 9.24671C18.4893 6.77689 17.5274 4.45473 15.7807 2.70832C14.0343 0.96192 11.7124 0 9.2423 0C6.77248 0 4.45032 0.96192 2.70392 2.70832C-0.901306 6.31385 -0.901306 12.1802 2.70392 15.7851C4.45032 17.5318 6.77248 18.4937 9.2423 18.4937C11.2918 18.4935 13.234 17.8226 14.8352 16.5994L18.8712 20.6354C19.114 20.8785 19.4327 21 19.7511 21C20.0695 21 20.3882 20.8785 20.631 20.6354C21.1171 20.1496 21.1171 19.3615 20.631 18.8756ZM4.46369 14.0253C1.82889 11.3905 1.8292 7.1032 4.46369 4.4681C5.74007 3.19202 7.43726 2.48896 9.2423 2.48896C11.0476 2.48896 12.7445 3.19202 14.0209 4.4681C15.2973 5.74448 16.0004 7.44167 16.0004 9.24671C16.0004 11.0521 15.2973 12.7489 14.0209 14.0253C12.7445 15.3017 11.0476 16.0048 9.2423 16.0048C7.43726 16.0048 5.74007 15.3017 4.46369 14.0253Z" fill="white"/>
</svg>
