<svg width="62" height="62" viewBox="0 0 62 62" fill="none" xmlns="http://www.w3.org/2000/svg">
<circle cx="31" cy="31" r="31" fill="#3E79CD"/>
<path d="M41.631 38.8756L37.595 34.8397C38.8182 33.2384 39.489 31.2962 39.4893 29.2467C39.4893 26.7769 38.5274 24.4547 36.7807 22.7083C35.0343 20.9619 32.7124 20 30.2423 20C27.7725 20 25.4503 20.9619 23.7039 22.7083C20.0987 26.3139 20.0987 32.1802 23.7039 35.7851C25.4503 37.5318 27.7725 38.4937 30.2423 38.4937C32.2918 38.4935 34.234 37.8226 35.8352 36.5994L39.8712 40.6354C40.114 40.8785 40.4327 41 40.7511 41C41.0695 41 41.3882 40.8785 41.631 40.6354C42.1171 40.1496 42.1171 39.3615 41.631 38.8756ZM25.4637 34.0253C22.8289 31.3905 22.8292 27.1032 25.4637 24.4681C26.7401 23.192 28.4373 22.489 30.2423 22.489C32.0476 22.489 33.7445 23.192 35.0209 24.4681C36.2973 25.7445 37.0004 27.4417 37.0004 29.2467C37.0004 31.0521 36.2973 32.7489 35.0209 34.0253C33.7445 35.3017 32.0476 36.0048 30.2423 36.0048C28.4373 36.0048 26.7401 35.3017 25.4637 34.0253Z" fill="white"/>
</svg>
