<svg width="14" height="15" viewBox="0 0 14 15" fill="none" xmlns="http://www.w3.org/2000/svg">
<path d="M13.754 13.0838L11.0633 10.3931C11.8788 9.3256 12.326 8.03079 12.3262 6.66447C12.3262 5.01793 11.6849 3.46982 10.5205 2.30555C9.35619 1.14128 7.80828 0.5 6.16154 0.5C4.51499 0.5 2.96688 1.14128 1.80261 2.30555C-0.600871 4.70924 -0.600871 8.62011 1.80261 11.0234C2.96688 12.1879 4.51499 12.8291 6.16154 12.8291C7.52785 12.829 8.82267 12.3817 9.89017 11.5663L12.5808 14.2569C12.7427 14.419 12.9551 14.5 13.1674 14.5C13.3797 14.5 13.5922 14.419 13.754 14.2569C14.0781 13.9331 14.0781 13.4076 13.754 13.0838ZM2.9758 9.85021C1.21926 8.09368 1.21947 5.23547 2.9758 3.47873C3.82672 2.62801 4.95817 2.15931 6.16154 2.15931C7.3651 2.15931 8.49635 2.62801 9.34728 3.47873C10.1982 4.32965 10.6669 5.46111 10.6669 6.66447C10.6669 7.86804 10.1982 8.99929 9.34728 9.85021C8.49635 10.7011 7.3651 11.1698 6.16154 11.1698C4.95817 11.1698 3.82672 10.7011 2.9758 9.85021Z" fill="#A6A8B5"/>
</svg>
